<?xml version="1.0" encoding="UTF-8" standalone="no"?>
<svg
   version="1.1"
   width="210.0072mm"
   height="148.0058mm"
   viewBox="0.0000 0.0000 210.0072 148.0058"
   id="svg3538"
   sodipodi:docname="epi_ESP32_PD-B_Cu.svg"
   xml:space="preserve"
   inkscape:version="1.2.2 (b0a8486541, 2022-12-01)"
   xmlns:inkscape="http://www.inkscape.org/namespaces/inkscape"
   xmlns:sodipodi="http://sodipodi.sourceforge.net/DTD/sodipodi-0.dtd"
   xmlns="http://www.w3.org/2000/svg"
   xmlns:svg="http://www.w3.org/2000/svg"><defs
     id="defs3542" /><sodipodi:namedview
     id="namedview3540"
     pagecolor="#ffffff"
     bordercolor="#666666"
     borderopacity="1.0"
     inkscape:showpageshadow="2"
     inkscape:pageopacity="0.0"
     inkscape:pagecheckerboard="0"
     inkscape:deskcolor="#d1d1d1"
     inkscape:document-units="mm"
     showgrid="false"
     inkscape:zoom="0.84377325"
     inkscape:cx="353.17545"
     inkscape:cy="241.77112"
     inkscape:window-width="1920"
     inkscape:window-height="1048"
     inkscape:window-x="0"
     inkscape:window-y="0"
     inkscape:window-maximized="1"
     inkscape:current-layer="layer1" /><title
     id="title2">SVG Image created as epi_ESP32_PD-B_Cu.svg date 2024/10/10 21:09:19 </title><desc
     id="desc4">Image generated by PCBNEW </desc><g
     inkscape:groupmode="layer"
     id="layer1"
     inkscape:label="Layer 1"><path
       style="fill:none;stroke:#000000;stroke-width:0.2;stroke-linecap:round;stroke-linejoin:round;stroke-dasharray:none;stroke-opacity:1"
       d="m 12.933304,29.391188 c 1.12499,-1.176925 1.53112,-3.853887 0.53849,-5.635669 C 11.548549,20.3033 8.5583856,19.581456 8.2713376,14.638127 8.0943026,11.589354 8.9771306,9.0571423 10.653384,6.7798063"
       id="path303"
       sodipodi:nodetypes="cssc"
       inkscape:export-filename="convolvulus.svg"
       inkscape:export-xdpi="96"
       inkscape:export-ydpi="96" /><path
       style="fill:none;stroke:#000000;stroke-width:0.2;stroke-linecap:butt;stroke-linejoin:miter;stroke-dasharray:none;stroke-opacity:1"
       d="m 14.533944,27.587914 c -0.0251,-0.35914 0.32275,-0.546393 0.21041,-0.731731 0.11027,-0.186607 -0.23962,-0.369933 -0.21858,-0.729333 0.77963,0.380186 2.19144,-0.181063 2.87265,0.714417 -0.67111,0.903076 -2.08913,0.357731 -2.86444,0.746659 z"
       id="path6873"
       sodipodi:nodetypes="cccccc" /><path
       style="fill:none;stroke:#000000;stroke-width:0.2;stroke-linecap:round;stroke-linejoin:miter;stroke-dasharray:none;stroke-opacity:1"
       d="m 14.744324,26.856174 0.66092,-0.0037"
       id="path7655"
       sodipodi:nodetypes="cc" /><path
       style="fill:none;stroke:#000000;stroke-width:0.2;stroke-linecap:round;stroke-linejoin:miter;stroke-dasharray:none;stroke-opacity:1"
       d="m 14.744324,26.856174 c -0.35941,-0.01471 -0.61482,0.07458 -0.78952,0.244573"
       id="path7657"
       sodipodi:nodetypes="cc" /><path
       style="fill:none;stroke:#000000;stroke-width:0.2;stroke-linecap:butt;stroke-linejoin:miter;stroke-dasharray:none;stroke-opacity:1"
       d="m 11.127192,20.175806 c 0.01282,-0.359787 0.378432,-0.509411 0.286207,-0.70554 0.129283,-0.173974 -0.199375,-0.393086 -0.140646,-0.748279 0.735314,0.460086 2.198331,0.05046 2.781561,1.012627 -0.76238,0.827471 -2.115167,0.13599 -2.927088,0.441207 z"
       id="path6873-6"
       sodipodi:nodetypes="cccccc" /><path
       style="fill:none;stroke:#000000;stroke-width:0.2;stroke-linecap:round;stroke-linejoin:miter;stroke-dasharray:none;stroke-opacity:1"
       d="m 11.413375,19.470256 0.657642,0.06584"
       id="path7655-2"
       sodipodi:nodetypes="cc" /><path
       style="fill:none;stroke:#000000;stroke-width:0.2;stroke-linecap:round;stroke-linejoin:miter;stroke-dasharray:none;stroke-opacity:1"
       d="m 11.413375,19.470256 c -0.355866,-0.05244 -0.773261,-0.0145 -0.887839,0.436511"
       id="path7657-9"
       sodipodi:nodetypes="cc" /><path
       style="fill:none;stroke:#000000;stroke-width:0.2;stroke-linecap:butt;stroke-linejoin:miter;stroke-dasharray:none;stroke-opacity:1"
       d="m 8.9263666,9.3212333 c -0.09379,-0.238468 -0.374625,-0.252341 -0.359152,-0.405826 -0.127983,-0.08615 0.04076,-0.311057 -0.08275,-0.535572 -0.384641,0.482918 -1.463659,0.554334 -1.627349,1.338261 0.707649,0.3749297 1.451979,-0.409493 2.069234,-0.396846 z"
       id="path6873-6-6"
       sodipodi:nodetypes="cccccc" /><path
       style="fill:none;stroke:#000000;stroke-width:0.2;stroke-linecap:round;stroke-linejoin:miter;stroke-dasharray:none;stroke-opacity:1"
       d="m 8.5672266,8.9153963 -0.425846,0.199894"
       id="path7655-2-0"
       sodipodi:nodetypes="cc" /><path
       style="fill:none;stroke:#000000;stroke-width:0.2;stroke-linecap:round;stroke-linejoin:miter;stroke-dasharray:none;stroke-opacity:1"
       d="m 8.5672266,8.9153963 c 0.226454,-0.119456 0.51561,-0.192806 0.699299,0.0828"
       id="path7657-9-6"
       sodipodi:nodetypes="cc" /><path
       style="fill:none;stroke:#000000;stroke-width:0.2;stroke-linecap:butt;stroke-linejoin:miter;stroke-dasharray:none;stroke-opacity:1"
       d="m 10.618802,7.0743493 c 0.156216,-0.0429 0.269661,0.09393 0.341458,0.02797 0.09209,0.03212 0.141971,-0.138489 0.302385,-0.16106 -0.09864,0.377634 0.274078,0.950738 -0.06061,1.330615 -0.457875,-0.216039 -0.342952,-0.889944 -0.583239,-1.197516 z"
       id="path6873-6-6-2"
       sodipodi:nodetypes="cccccc" /><path
       style="fill:none;stroke:#000000;stroke-width:0.2;stroke-linecap:round;stroke-linejoin:miter;stroke-dasharray:none;stroke-opacity:1"
       d="m 10.960261,7.1023153 0.0602,0.291245"
       id="path7655-2-0-6"
       sodipodi:nodetypes="cc" /><path
       style="fill:none;stroke:#000000;stroke-width:0.2;stroke-linecap:round;stroke-linejoin:miter;stroke-dasharray:none;stroke-opacity:1"
       d="m 10.960261,7.1023153 c -0.02536,-0.159861 -0.0978,-0.333984 -0.306877,-0.322509"
       id="path7657-9-6-1"
       sodipodi:nodetypes="cc" /><path
       style="fill:none;stroke:#000000;stroke-width:0.2;stroke-linecap:butt;stroke-linejoin:miter;stroke-dasharray:none;stroke-opacity:1"
       d="m 12.79703,23.956255 c -0.07406,-0.352317 -0.459856,-0.437317 -0.402476,-0.64631 -0.157093,-0.149343 0.129334,-0.421356 0.01082,-0.761306 -0.645959,0.578879 -2.157432,0.425065 -2.5678204,1.472687 0.8924704,0.685151 2.1073294,-0.227154 2.9594404,-0.06505 z"
       id="path6873-5"
       sodipodi:nodetypes="cccccc" /><path
       style="fill:none;stroke:#000000;stroke-width:0.2;stroke-linecap:round;stroke-linejoin:miter;stroke-dasharray:none;stroke-opacity:1"
       d="m 12.394581,23.309928 -0.636744,0.177163"
       id="path7655-3"
       sodipodi:nodetypes="cc" /><path
       style="fill:none;stroke:#000000;stroke-width:0.2;stroke-linecap:round;stroke-linejoin:miter;stroke-dasharray:none;stroke-opacity:1"
       d="m 12.394581,23.309928 c 0.34169,-0.112426 0.611783,-0.09638 0.826303,0.01937"
       id="path7657-5"
       sodipodi:nodetypes="cc" /><path
       style="fill:none;stroke:#000000;stroke-width:0.2;stroke-linecap:butt;stroke-linejoin:miter;stroke-dasharray:none;stroke-opacity:1"
       d="m 8.6807026,16.661734 c -0.337096,-0.126407 -0.615714,0.153656 -0.761352,-0.0068 -0.210294,0.05252 -0.286306,-0.335107 -0.6368,-0.417361 0.142243,0.855647 -0.798072,2.048969 -0.133856,2.957125 1.056882,-0.385921 0.938258,-1.900554 1.532006,-2.532878 z"
       id="path6873-5-1"
       sodipodi:nodetypes="cccccc" /><path
       style="fill:none;stroke:#000000;stroke-width:0.2;stroke-linecap:round;stroke-linejoin:miter;stroke-dasharray:none;stroke-opacity:1"
       d="m 7.9193506,16.654859 -0.191896,0.632459"
       id="path7655-3-2"
       sodipodi:nodetypes="cc" /><path
       style="fill:none;stroke:#000000;stroke-width:0.2;stroke-linecap:round;stroke-linejoin:miter;stroke-dasharray:none;stroke-opacity:1"
       d="m 7.9193506,16.654859 c 0.08832,-0.348699 0.246699,-0.568074 0.459431,-0.687078"
       id="path7657-5-7"
       sodipodi:nodetypes="cc" /><path
       style="fill:none;stroke:#000000;stroke-width:0.2;stroke-linecap:butt;stroke-linejoin:miter;stroke-dasharray:none;stroke-opacity:1"
       d="m 8.5481136,12.901431 c 0.196783,-0.267587 0.553248,-0.191595 0.584904,-0.389016 0.188981,-0.0654 0.05235,-0.403262 0.281736,-0.643483 0.321346,0.732907 1.6494474,1.181124 1.5938974,2.217693 -1.0112334,0.234467 -1.6829734,-0.995776 -2.4605064,-1.18515 z"
       id="path6873-5-1-0"
       sodipodi:nodetypes="cccccc" /><path
       style="fill:none;stroke:#000000;stroke-width:0.2;stroke-linecap:round;stroke-linejoin:miter;stroke-dasharray:none;stroke-opacity:1"
       d="m 9.1329946,12.512379 0.467063,0.392022"
       id="path7655-3-2-9"
       sodipodi:nodetypes="cc" /><path
       style="fill:none;stroke:#000000;stroke-width:0.2;stroke-linecap:round;stroke-linejoin:miter;stroke-dasharray:none;stroke-opacity:1"
       d="M 9.1329946,12.512379 C 8.8889916,12.287433 8.6560316,12.197735 8.4316596,12.212994"
       id="path7657-5-7-3"
       sodipodi:nodetypes="cc" /></g></svg>
